<svg xmlns="http://www.w3.org/2000/svg" xmlns:xlink="http://www.w3.org/1999/xlink" width="1920" zoomAndPan="magnify" viewBox="0 0 1440 809.999993" height="1080" preserveAspectRatio="xMidYMid meet" version="1.0"><defs><g/></defs><g fill="#fafafa" fill-opacity="1"><g transform="translate(50.695316, 535.749984)"><g><path d="M 6.59375 -4.796875 L 6.59375 0 L 73.203125 0 L 73.203125 -4.796875 L 37.796875 -4.796875 L 56.703125 -62.703125 L 117 -62.703125 L 136.5 -4.796875 L 105.59375 -4.796875 L 105.59375 0 L 193.5 0 L 193.5 -4.796875 L 167.40625 -4.796875 L 101.703125 -204.296875 L 98.09375 -204.296875 L 32.40625 -4.796875 Z M 86.703125 -153.296875 L 115.5 -67.5 L 58.5 -67.5 Z M 86.703125 -153.296875 "/></g></g></g><g fill="#fafafa" fill-opacity="1"><g transform="translate(248.994961, 535.749984)"><g><path d="M 59.09375 -117.59375 L 10.796875 -117.59375 L 10.796875 -112.796875 L 33.296875 -112.796875 L 33.296875 -4.796875 L 10.796875 -4.796875 L 10.796875 0 L 81.59375 0 L 81.59375 -4.796875 L 59.09375 -4.796875 Z M 61.5 -173.09375 C 61.5 -177.5 60 -181.203125 57 -184.203125 C 54 -187.203125 50.300781 -188.703125 45.90625 -188.703125 C 41.5 -188.703125 37.796875 -187.203125 34.796875 -184.203125 C 31.796875 -181.203125 30.296875 -177.5 30.296875 -173.09375 C 30.296875 -168.695312 31.796875 -165 34.796875 -162 C 37.796875 -159 41.5 -157.5 45.90625 -157.5 C 50.300781 -157.5 54 -159 57 -162 C 60 -165 61.5 -168.695312 61.5 -173.09375 Z M 61.5 -173.09375 "/></g></g></g><g fill="#fafafa" fill-opacity="1"><g transform="translate(337.194801, 535.749984)"><g><path d="M 108.59375 -117.59375 L 21 -117.59375 L 21 -81.59375 L 24.59375 -81.59375 C 25.195312 -87.800781 26.296875 -92.90625 27.890625 -96.90625 C 29.492188 -100.90625 31.492188 -104.101562 33.890625 -106.5 C 36.296875 -108.894531 39.046875 -110.539062 42.140625 -111.4375 C 45.242188 -112.34375 48.597656 -112.796875 52.203125 -112.796875 L 82.5 -112.796875 L 15.59375 -6.59375 L 15.59375 0 L 111.59375 0 L 111.59375 -39.296875 L 108 -39.296875 C 107.195312 -27.296875 104.34375 -18.546875 99.4375 -13.046875 C 94.539062 -7.546875 87.296875 -4.796875 77.703125 -4.796875 L 42.59375 -4.796875 L 108.59375 -110.40625 Z M 108.59375 -117.59375 "/></g></g></g><g fill="#fafafa" fill-opacity="1"><g transform="translate(457.794557, 535.749984)"><g><path d="M 117.90625 -72.90625 C 117.695312 -76.101562 116.644531 -80.5 114.75 -86.09375 C 112.851562 -91.695312 109.90625 -97.097656 105.90625 -102.296875 C 101.90625 -107.492188 96.601562 -112.039062 90 -115.9375 C 83.394531 -119.84375 75.296875 -121.796875 65.703125 -121.796875 C 57.703125 -121.796875 50.25 -119.894531 43.34375 -116.09375 C 36.445312 -112.300781 30.5 -107.40625 25.5 -101.40625 C 20.5 -95.40625 16.597656 -88.601562 13.796875 -81 C 10.992188 -73.394531 9.59375 -65.695312 9.59375 -57.90625 C 9.59375 -50.101562 10.992188 -42.5 13.796875 -35.09375 C 16.597656 -27.695312 20.5 -21.097656 25.5 -15.296875 C 30.5 -9.492188 36.546875 -4.789062 43.640625 -1.1875 C 50.742188 2.40625 58.5 4.203125 66.90625 4.203125 C 73.695312 4.203125 79.894531 3.25 85.5 1.34375 C 91.101562 -0.550781 96.050781 -3.148438 100.34375 -6.453125 C 104.644531 -9.753906 108.296875 -13.601562 111.296875 -18 C 114.296875 -22.394531 116.695312 -26.992188 118.5 -31.796875 C 119.101562 -33.203125 119.40625 -34.601562 119.40625 -36 C 119.40625 -37.394531 118.800781 -38.09375 117.59375 -38.09375 C 116.59375 -38.09375 115.695312 -37.09375 114.90625 -35.09375 C 113.101562 -30.894531 110.847656 -26.695312 108.140625 -22.5 C 105.441406 -18.300781 102.144531 -14.597656 98.25 -11.390625 C 94.351562 -8.191406 89.90625 -5.59375 84.90625 -3.59375 C 79.90625 -1.59375 74.101562 -0.59375 67.5 -0.59375 C 59.5 -0.59375 53.046875 -3.59375 48.140625 -9.59375 C 43.242188 -15.59375 40.796875 -25.195312 40.796875 -38.40625 L 40.796875 -69 L 113.09375 -69 C 116.300781 -69 117.90625 -70.300781 117.90625 -72.90625 Z M 40.796875 -73.796875 L 40.796875 -85.796875 C 40.796875 -92.398438 41.546875 -97.75 43.046875 -101.84375 C 44.546875 -105.945312 46.492188 -109.097656 48.890625 -111.296875 C 51.296875 -113.492188 54 -114.992188 57 -115.796875 C 60 -116.597656 63 -117 66 -117 C 70.800781 -117 74.75 -116.148438 77.84375 -114.453125 C 80.945312 -112.753906 83.398438 -110.503906 85.203125 -107.703125 C 87.003906 -104.898438 88.203125 -101.796875 88.796875 -98.390625 C 89.398438 -94.992188 89.703125 -91.5 89.703125 -87.90625 C 89.703125 -78.5 88.203125 -73.796875 85.203125 -73.796875 Z M 40.796875 -73.796875 "/></g></g></g><g fill="#fafafa" fill-opacity="1"><g transform="translate(587.994348, 535.749984)"><g><path d="M 53.40625 -100.203125 L 53.40625 -117.59375 L 6.59375 -117.59375 L 6.59375 -112.796875 L 27.59375 -112.796875 L 27.59375 -4.796875 L 6.59375 -4.796875 L 6.59375 0 L 74.40625 0 L 74.40625 -4.796875 L 53.40625 -4.796875 L 53.40625 -87 C 53.40625 -90.195312 54.351562 -93.492188 56.25 -96.890625 C 58.144531 -100.296875 60.644531 -103.398438 63.75 -106.203125 C 66.851562 -109.003906 70.300781 -111.253906 74.09375 -112.953125 C 77.894531 -114.648438 81.597656 -115.5 85.203125 -115.5 C 87.398438 -115.5 89.347656 -115.347656 91.046875 -115.046875 C 92.742188 -114.742188 93.59375 -113.992188 93.59375 -112.796875 C 93.59375 -111.796875 93.09375 -111.097656 92.09375 -110.703125 C 90.894531 -109.898438 89.492188 -108.546875 87.890625 -106.640625 C 86.296875 -104.742188 85.5 -101.796875 85.5 -97.796875 C 85.5 -93.597656 86.898438 -90.148438 89.703125 -87.453125 C 92.503906 -84.753906 96.203125 -83.40625 100.796875 -83.40625 C 104.796875 -83.40625 108.296875 -84.753906 111.296875 -87.453125 C 114.296875 -90.148438 115.796875 -93.898438 115.796875 -98.703125 C 115.796875 -102.703125 114.992188 -106.050781 113.390625 -108.75 C 111.796875 -111.445312 109.75 -113.644531 107.25 -115.34375 C 104.75 -117.050781 101.847656 -118.300781 98.546875 -119.09375 C 95.242188 -119.894531 91.894531 -120.296875 88.5 -120.296875 C 83.695312 -120.296875 79.394531 -119.59375 75.59375 -118.1875 C 71.800781 -116.789062 68.40625 -115.09375 65.40625 -113.09375 C 62.40625 -111.09375 59.90625 -108.941406 57.90625 -106.640625 C 55.90625 -104.347656 54.40625 -102.203125 53.40625 -100.203125 Z M 53.40625 -100.203125 "/></g></g></g><g fill="#fafafa" fill-opacity="1"><g transform="translate(707.994159, 535.749984)"><g/></g></g><g fill="#fafafa" fill-opacity="1"><g transform="translate(788.693999, 535.749984)"><g><path d="M 108.296875 -4.796875 L 108.296875 -196.796875 L 134.09375 -196.796875 C 143.300781 -196.796875 151.351562 -192.09375 158.25 -182.6875 C 165.144531 -173.289062 169.695312 -160.492188 171.90625 -144.296875 L 178.203125 -144.296875 L 173.703125 -196.5 C 173.503906 -199.894531 171.503906 -201.59375 167.703125 -201.59375 L 19.796875 -201.59375 C 15.992188 -201.59375 13.992188 -199.894531 13.796875 -196.5 L 9.296875 -144.296875 L 15.59375 -144.296875 C 17.800781 -160.492188 22.351562 -173.289062 29.25 -182.6875 C 36.144531 -192.09375 44.195312 -196.796875 53.40625 -196.796875 L 79.203125 -196.796875 L 79.203125 -4.796875 L 53.40625 -4.796875 L 53.40625 0 L 134.09375 0 L 134.09375 -4.796875 Z M 108.296875 -4.796875 "/></g></g></g><g fill="#fafafa" fill-opacity="1"><g transform="translate(974.393697, 535.749984)"><g><path d="M 117.90625 -72.90625 C 117.695312 -76.101562 116.644531 -80.5 114.75 -86.09375 C 112.851562 -91.695312 109.90625 -97.097656 105.90625 -102.296875 C 101.90625 -107.492188 96.601562 -112.039062 90 -115.9375 C 83.394531 -119.84375 75.296875 -121.796875 65.703125 -121.796875 C 57.703125 -121.796875 50.25 -119.894531 43.34375 -116.09375 C 36.445312 -112.300781 30.5 -107.40625 25.5 -101.40625 C 20.5 -95.40625 16.597656 -88.601562 13.796875 -81 C 10.992188 -73.394531 9.59375 -65.695312 9.59375 -57.90625 C 9.59375 -50.101562 10.992188 -42.5 13.796875 -35.09375 C 16.597656 -27.695312 20.5 -21.097656 25.5 -15.296875 C 30.5 -9.492188 36.546875 -4.789062 43.640625 -1.1875 C 50.742188 2.40625 58.5 4.203125 66.90625 4.203125 C 73.695312 4.203125 79.894531 3.25 85.5 1.34375 C 91.101562 -0.550781 96.050781 -3.148438 100.34375 -6.453125 C 104.644531 -9.753906 108.296875 -13.601562 111.296875 -18 C 114.296875 -22.394531 116.695312 -26.992188 118.5 -31.796875 C 119.101562 -33.203125 119.40625 -34.601562 119.40625 -36 C 119.40625 -37.394531 118.800781 -38.09375 117.59375 -38.09375 C 116.59375 -38.09375 115.695312 -37.09375 114.90625 -35.09375 C 113.101562 -30.894531 110.847656 -26.695312 108.140625 -22.5 C 105.441406 -18.300781 102.144531 -14.597656 98.25 -11.390625 C 94.351562 -8.191406 89.90625 -5.59375 84.90625 -3.59375 C 79.90625 -1.59375 74.101562 -0.59375 67.5 -0.59375 C 59.5 -0.59375 53.046875 -3.59375 48.140625 -9.59375 C 43.242188 -15.59375 40.796875 -25.195312 40.796875 -38.40625 L 40.796875 -69 L 113.09375 -69 C 116.300781 -69 117.90625 -70.300781 117.90625 -72.90625 Z M 40.796875 -73.796875 L 40.796875 -85.796875 C 40.796875 -92.398438 41.546875 -97.75 43.046875 -101.84375 C 44.546875 -105.945312 46.492188 -109.097656 48.890625 -111.296875 C 51.296875 -113.492188 54 -114.992188 57 -115.796875 C 60 -116.597656 63 -117 66 -117 C 70.800781 -117 74.75 -116.148438 77.84375 -114.453125 C 80.945312 -112.753906 83.398438 -110.503906 85.203125 -107.703125 C 87.003906 -104.898438 88.203125 -101.796875 88.796875 -98.390625 C 89.398438 -94.992188 89.703125 -91.5 89.703125 -87.90625 C 89.703125 -78.5 88.203125 -73.796875 85.203125 -73.796875 Z M 40.796875 -73.796875 "/></g></g></g><g fill="#fafafa" fill-opacity="1"><g transform="translate(1104.593488, 535.749984)"><g><path d="M 41.09375 -51.90625 L 41.09375 -65.09375 C 41.09375 -74.894531 41.691406 -83.09375 42.890625 -89.6875 C 44.097656 -96.289062 45.953125 -101.644531 48.453125 -105.75 C 50.953125 -109.851562 54.097656 -112.753906 57.890625 -114.453125 C 61.691406 -116.148438 66.195312 -117 71.40625 -117 C 78.800781 -117 83.847656 -116.046875 86.546875 -114.140625 C 89.242188 -112.242188 90.59375 -110.894531 90.59375 -110.09375 C 90.59375 -109.300781 90.296875 -108.601562 89.703125 -108 C 88.296875 -106.394531 87.242188 -104.742188 86.546875 -103.046875 C 85.847656 -101.347656 85.5 -99.195312 85.5 -96.59375 C 85.5 -92.59375 86.796875 -89.539062 89.390625 -87.4375 C 91.992188 -85.34375 95 -84.296875 98.40625 -84.296875 C 102.40625 -84.296875 105.601562 -85.492188 108 -87.890625 C 110.394531 -90.296875 111.59375 -93.398438 111.59375 -97.203125 C 111.59375 -101.003906 110.289062 -104.453125 107.6875 -107.546875 C 105.09375 -110.648438 101.84375 -113.25 97.9375 -115.34375 C 94.039062 -117.445312 89.789062 -119.046875 85.1875 -120.140625 C 80.59375 -121.242188 76.195312 -121.796875 72 -121.796875 C 64.195312 -121.796875 56.59375 -120.242188 49.1875 -117.140625 C 41.789062 -114.046875 35.191406 -109.75 29.390625 -104.25 C 23.597656 -98.75 18.898438 -92.097656 15.296875 -84.296875 C 11.703125 -76.492188 9.90625 -67.894531 9.90625 -58.5 C 9.90625 -48.894531 11.65625 -40.242188 15.15625 -32.546875 C 18.65625 -24.847656 23.253906 -18.25 28.953125 -12.75 C 34.648438 -7.25 41.148438 -3.046875 48.453125 -0.140625 C 55.753906 2.753906 63.101562 4.203125 70.5 4.203125 C 77.894531 4.203125 84.394531 3.050781 90 0.75 C 95.601562 -1.550781 100.300781 -4.453125 104.09375 -7.953125 C 107.894531 -11.453125 110.894531 -15.148438 113.09375 -19.046875 C 115.300781 -22.953125 116.90625 -26.503906 117.90625 -29.703125 C 118.300781 -30.898438 118.5 -31.695312 118.5 -32.09375 C 118.5 -33.894531 117.695312 -34.796875 116.09375 -34.796875 C 114.894531 -34.796875 114 -33.796875 113.40625 -31.796875 C 112.195312 -27.992188 110.394531 -24.242188 108 -20.546875 C 105.601562 -16.847656 102.65625 -13.5 99.15625 -10.5 C 95.65625 -7.5 91.550781 -5.097656 86.84375 -3.296875 C 82.144531 -1.492188 77 -0.59375 71.40625 -0.59375 C 65.195312 -0.59375 60.144531 -1.492188 56.25 -3.296875 C 52.351562 -5.097656 49.253906 -8.046875 46.953125 -12.140625 C 44.648438 -16.242188 43.097656 -21.546875 42.296875 -28.046875 C 41.492188 -34.546875 41.09375 -42.5 41.09375 -51.90625 Z M 41.09375 -51.90625 "/></g></g></g><g fill="#fafafa" fill-opacity="1"><g transform="translate(1227.593299, 535.749984)"><g><path d="M 55.796875 -96.59375 L 55.796875 -201.59375 L 9 -201.59375 L 9 -196.796875 L 30 -196.796875 L 30 -4.796875 L 9 -4.796875 L 9 0 L 76.796875 0 L 76.796875 -4.796875 L 55.796875 -4.796875 L 55.796875 -79.796875 C 55.796875 -82.992188 56.644531 -86.539062 58.34375 -90.4375 C 60.050781 -94.34375 62.503906 -98.046875 65.703125 -101.546875 C 68.898438 -105.046875 72.597656 -107.992188 76.796875 -110.390625 C 80.992188 -112.796875 85.695312 -114 90.90625 -114 C 95.101562 -114 98.398438 -113.296875 100.796875 -111.890625 C 103.203125 -110.492188 105.003906 -108.695312 106.203125 -106.5 C 107.398438 -104.300781 108.148438 -101.847656 108.453125 -99.140625 C 108.753906 -96.441406 108.90625 -93.695312 108.90625 -90.90625 L 108.90625 -4.796875 L 88.203125 -4.796875 L 88.203125 0 L 155.703125 0 L 155.703125 -4.796875 L 134.703125 -4.796875 L 134.703125 -94.203125 C 134.703125 -103.203125 131.648438 -110.050781 125.546875 -114.75 C 119.453125 -119.445312 111.003906 -121.796875 100.203125 -121.796875 C 88.398438 -121.796875 78.945312 -119.296875 71.84375 -114.296875 C 64.75 -109.296875 59.398438 -103.394531 55.796875 -96.59375 Z M 55.796875 -96.59375 "/></g></g></g></svg>