<svg xmlns="http://www.w3.org/2000/svg" xmlns:xlink="http://www.w3.org/1999/xlink" width="1920" zoomAndPan="magnify" viewBox="0 0 1440 809.999993" height="1080" preserveAspectRatio="xMidYMid meet" version="1.0"><defs><g/></defs><g fill="#fafafa" fill-opacity="1"><g transform="translate(162.25195, 488.999995)"><g><path d="M 5.5 -4 L 5.5 0 L 61 0 L 61 -4 L 31.5 -4 L 47.25 -52.25 L 97.5 -52.25 L 113.75 -4 L 88 -4 L 88 0 L 161.25 0 L 161.25 -4 L 139.5 -4 L 84.75 -170.25 L 81.75 -170.25 L 27 -4 Z M 72.25 -127.75 L 96.25 -56.25 L 48.75 -56.25 Z M 72.25 -127.75 "/></g></g></g><g fill="#fafafa" fill-opacity="1"><g transform="translate(327.499989, 488.999995)"><g><path d="M 49.25 -98 L 9 -98 L 9 -94 L 27.75 -94 L 27.75 -4 L 9 -4 L 9 0 L 68 0 L 68 -4 L 49.25 -4 Z M 51.25 -144.25 C 51.25 -147.914062 50 -151 47.5 -153.5 C 45 -156 41.914062 -157.25 38.25 -157.25 C 34.582031 -157.25 31.5 -156 29 -153.5 C 26.5 -151 25.25 -147.914062 25.25 -144.25 C 25.25 -140.582031 26.5 -137.5 29 -135 C 31.5 -132.5 34.582031 -131.25 38.25 -131.25 C 41.914062 -131.25 45 -132.5 47.5 -135 C 50 -137.5 51.25 -140.582031 51.25 -144.25 Z M 51.25 -144.25 "/></g></g></g><g fill="#fafafa" fill-opacity="1"><g transform="translate(400.999104, 488.999995)"><g><path d="M 90.5 -98 L 17.5 -98 L 17.5 -68 L 20.5 -68 C 21 -73.164062 21.914062 -77.414062 23.25 -80.75 C 24.582031 -84.082031 26.25 -86.75 28.25 -88.75 C 30.25 -90.75 32.539062 -92.125 35.125 -92.875 C 37.707031 -93.625 40.5 -94 43.5 -94 L 68.75 -94 L 13 -5.5 L 13 0 L 93 0 L 93 -32.75 L 90 -32.75 C 89.332031 -22.75 86.957031 -15.457031 82.875 -10.875 C 78.789062 -6.289062 72.75 -4 64.75 -4 L 35.5 -4 L 90.5 -92 Z M 90.5 -98 "/></g></g></g><g fill="#fafafa" fill-opacity="1"><g transform="translate(501.497886, 488.999995)"><g><path d="M 98.25 -60.75 C 98.082031 -63.414062 97.207031 -67.082031 95.625 -71.75 C 94.039062 -76.414062 91.582031 -80.914062 88.25 -85.25 C 84.914062 -89.582031 80.5 -93.375 75 -96.625 C 69.5 -99.875 62.75 -101.5 54.75 -101.5 C 48.082031 -101.5 41.875 -99.914062 36.125 -96.75 C 30.375 -93.582031 25.414062 -89.5 21.25 -84.5 C 17.082031 -79.5 13.832031 -73.832031 11.5 -67.5 C 9.164062 -61.164062 8 -54.75 8 -48.25 C 8 -41.75 9.164062 -35.414062 11.5 -29.25 C 13.832031 -23.082031 17.082031 -17.582031 21.25 -12.75 C 25.414062 -7.914062 30.457031 -4 36.375 -1 C 42.289062 2 48.75 3.5 55.75 3.5 C 61.414062 3.5 66.582031 2.707031 71.25 1.125 C 75.914062 -0.457031 80.039062 -2.625 83.625 -5.375 C 87.207031 -8.125 90.25 -11.332031 92.75 -15 C 95.25 -18.664062 97.25 -22.5 98.75 -26.5 C 99.25 -27.664062 99.5 -28.832031 99.5 -30 C 99.5 -31.164062 99 -31.75 98 -31.75 C 97.164062 -31.75 96.414062 -30.914062 95.75 -29.25 C 94.25 -25.75 92.375 -22.25 90.125 -18.75 C 87.875 -15.25 85.125 -12.164062 81.875 -9.5 C 78.625 -6.832031 74.914062 -4.664062 70.75 -3 C 66.582031 -1.332031 61.75 -0.5 56.25 -0.5 C 49.582031 -0.5 44.207031 -3 40.125 -8 C 36.039062 -13 34 -21 34 -32 L 34 -57.5 L 94.25 -57.5 C 96.914062 -57.5 98.25 -58.582031 98.25 -60.75 Z M 34 -61.5 L 34 -71.5 C 34 -77 34.625 -81.457031 35.875 -84.875 C 37.125 -88.289062 38.75 -90.914062 40.75 -92.75 C 42.75 -94.582031 45 -95.832031 47.5 -96.5 C 50 -97.164062 52.5 -97.5 55 -97.5 C 59 -97.5 62.289062 -96.789062 64.875 -95.375 C 67.457031 -93.957031 69.5 -92.082031 71 -89.75 C 72.5 -87.414062 73.5 -84.832031 74 -82 C 74.5 -79.164062 74.75 -76.25 74.75 -73.25 C 74.75 -65.414062 73.5 -61.5 71 -61.5 Z M 34 -61.5 "/></g></g></g><g fill="#fafafa" fill-opacity="1"><g transform="translate(609.996615, 488.999995)"><g><path d="M 44.5 -83.5 L 44.5 -98 L 5.5 -98 L 5.5 -94 L 23 -94 L 23 -4 L 5.5 -4 L 5.5 0 L 62 0 L 62 -4 L 44.5 -4 L 44.5 -72.5 C 44.5 -75.164062 45.289062 -77.914062 46.875 -80.75 C 48.457031 -83.582031 50.539062 -86.164062 53.125 -88.5 C 55.707031 -90.832031 58.582031 -92.707031 61.75 -94.125 C 64.914062 -95.539062 68 -96.25 71 -96.25 C 72.832031 -96.25 74.457031 -96.125 75.875 -95.875 C 77.289062 -95.625 78 -95 78 -94 C 78 -93.164062 77.582031 -92.582031 76.75 -92.25 C 75.75 -91.582031 74.582031 -90.457031 73.25 -88.875 C 71.914062 -87.289062 71.25 -84.832031 71.25 -81.5 C 71.25 -78 72.414062 -75.125 74.75 -72.875 C 77.082031 -70.625 80.164062 -69.5 84 -69.5 C 87.332031 -69.5 90.25 -70.625 92.75 -72.875 C 95.25 -75.125 96.5 -78.25 96.5 -82.25 C 96.5 -85.582031 95.832031 -88.375 94.5 -90.625 C 93.164062 -92.875 91.457031 -94.707031 89.375 -96.125 C 87.289062 -97.539062 84.875 -98.582031 82.125 -99.25 C 79.375 -99.914062 76.582031 -100.25 73.75 -100.25 C 69.75 -100.25 66.164062 -99.664062 63 -98.5 C 59.832031 -97.332031 57 -95.914062 54.5 -94.25 C 52 -92.582031 49.914062 -90.789062 48.25 -88.875 C 46.582031 -86.957031 45.332031 -85.164062 44.5 -83.5 Z M 44.5 -83.5 "/></g></g></g><g fill="#fafafa" fill-opacity="1"><g transform="translate(777.244683, 488.999995)"><g><path d="M 90.25 -4 L 90.25 -164 L 111.75 -164 C 119.414062 -164 126.125 -160.082031 131.875 -152.25 C 137.625 -144.414062 141.414062 -133.75 143.25 -120.25 L 148.5 -120.25 L 144.75 -163.75 C 144.582031 -166.582031 142.914062 -168 139.75 -168 L 16.5 -168 C 13.332031 -168 11.664062 -166.582031 11.5 -163.75 L 7.75 -120.25 L 13 -120.25 C 14.832031 -133.75 18.625 -144.414062 24.375 -152.25 C 30.125 -160.082031 36.832031 -164 44.5 -164 L 66 -164 L 66 -4 L 44.5 -4 L 44.5 0 L 111.75 0 L 111.75 -4 Z M 90.25 -4 "/></g></g></g><g fill="#fafafa" fill-opacity="1"><g transform="translate(931.992873, 488.999995)"><g><path d="M 98.25 -60.75 C 98.082031 -63.414062 97.207031 -67.082031 95.625 -71.75 C 94.039062 -76.414062 91.582031 -80.914062 88.25 -85.25 C 84.914062 -89.582031 80.5 -93.375 75 -96.625 C 69.5 -99.875 62.75 -101.5 54.75 -101.5 C 48.082031 -101.5 41.875 -99.914062 36.125 -96.75 C 30.375 -93.582031 25.414062 -89.5 21.25 -84.5 C 17.082031 -79.5 13.832031 -73.832031 11.5 -67.5 C 9.164062 -61.164062 8 -54.75 8 -48.25 C 8 -41.75 9.164062 -35.414062 11.5 -29.25 C 13.832031 -23.082031 17.082031 -17.582031 21.25 -12.75 C 25.414062 -7.914062 30.457031 -4 36.375 -1 C 42.289062 2 48.75 3.5 55.75 3.5 C 61.414062 3.5 66.582031 2.707031 71.25 1.125 C 75.914062 -0.457031 80.039062 -2.625 83.625 -5.375 C 87.207031 -8.125 90.25 -11.332031 92.75 -15 C 95.25 -18.664062 97.25 -22.5 98.75 -26.5 C 99.25 -27.664062 99.5 -28.832031 99.5 -30 C 99.5 -31.164062 99 -31.75 98 -31.75 C 97.164062 -31.75 96.414062 -30.914062 95.75 -29.25 C 94.25 -25.75 92.375 -22.25 90.125 -18.75 C 87.875 -15.25 85.125 -12.164062 81.875 -9.5 C 78.625 -6.832031 74.914062 -4.664062 70.75 -3 C 66.582031 -1.332031 61.75 -0.5 56.25 -0.5 C 49.582031 -0.5 44.207031 -3 40.125 -8 C 36.039062 -13 34 -21 34 -32 L 34 -57.5 L 94.25 -57.5 C 96.914062 -57.5 98.25 -58.582031 98.25 -60.75 Z M 34 -61.5 L 34 -71.5 C 34 -77 34.625 -81.457031 35.875 -84.875 C 37.125 -88.289062 38.75 -90.914062 40.75 -92.75 C 42.75 -94.582031 45 -95.832031 47.5 -96.5 C 50 -97.164062 52.5 -97.5 55 -97.5 C 59 -97.5 62.289062 -96.789062 64.875 -95.375 C 67.457031 -93.957031 69.5 -92.082031 71 -89.75 C 72.5 -87.414062 73.5 -84.832031 74 -82 C 74.5 -79.164062 74.75 -76.25 74.75 -73.25 C 74.75 -65.414062 73.5 -61.5 71 -61.5 Z M 34 -61.5 "/></g></g></g><g fill="#fafafa" fill-opacity="1"><g transform="translate(1040.491647, 488.999995)"><g><path d="M 34.25 -43.25 L 34.25 -54.25 C 34.25 -62.414062 34.75 -69.25 35.75 -74.75 C 36.75 -80.25 38.289062 -84.707031 40.375 -88.125 C 42.457031 -91.539062 45.082031 -93.957031 48.25 -95.375 C 51.414062 -96.789062 55.164062 -97.5 59.5 -97.5 C 65.664062 -97.5 69.875 -96.707031 72.125 -95.125 C 74.375 -93.539062 75.5 -92.414062 75.5 -91.75 C 75.5 -91.082031 75.25 -90.5 74.75 -90 C 73.582031 -88.664062 72.707031 -87.289062 72.125 -85.875 C 71.539062 -84.457031 71.25 -82.664062 71.25 -80.5 C 71.25 -77.164062 72.332031 -74.625 74.5 -72.875 C 76.664062 -71.125 79.164062 -70.25 82 -70.25 C 85.332031 -70.25 88 -71.25 90 -73.25 C 92 -75.25 93 -77.832031 93 -81 C 93 -84.164062 91.914062 -87.039062 89.75 -89.625 C 87.582031 -92.207031 84.875 -94.375 81.625 -96.125 C 78.375 -97.875 74.832031 -99.207031 71 -100.125 C 67.164062 -101.039062 63.5 -101.5 60 -101.5 C 53.5 -101.5 47.164062 -100.207031 41 -97.625 C 34.832031 -95.039062 29.332031 -91.457031 24.5 -86.875 C 19.664062 -82.289062 15.75 -76.75 12.75 -70.25 C 9.75 -63.75 8.25 -56.582031 8.25 -48.75 C 8.25 -40.75 9.707031 -33.539062 12.625 -27.125 C 15.539062 -20.707031 19.375 -15.207031 24.125 -10.625 C 28.875 -6.039062 34.289062 -2.539062 40.375 -0.125 C 46.457031 2.289062 52.582031 3.5 58.75 3.5 C 64.914062 3.5 70.332031 2.539062 75 0.625 C 79.664062 -1.289062 83.582031 -3.707031 86.75 -6.625 C 89.914062 -9.539062 92.414062 -12.625 94.25 -15.875 C 96.082031 -19.125 97.414062 -22.082031 98.25 -24.75 C 98.582031 -25.75 98.75 -26.414062 98.75 -26.75 C 98.75 -28.25 98.082031 -29 96.75 -29 C 95.75 -29 95 -28.164062 94.5 -26.5 C 93.5 -23.332031 92 -20.207031 90 -17.125 C 88 -14.039062 85.539062 -11.25 82.625 -8.75 C 79.707031 -6.25 76.289062 -4.25 72.375 -2.75 C 68.457031 -1.25 64.164062 -0.5 59.5 -0.5 C 54.332031 -0.5 50.125 -1.25 46.875 -2.75 C 43.625 -4.25 41.039062 -6.707031 39.125 -10.125 C 37.207031 -13.539062 35.914062 -17.957031 35.25 -23.375 C 34.582031 -28.789062 34.25 -35.414062 34.25 -43.25 Z M 34.25 -43.25 "/></g></g></g><g fill="#fafafa" fill-opacity="1"><g transform="translate(1142.990421, 488.999995)"><g><path d="M 46.5 -80.5 L 46.5 -168 L 7.5 -168 L 7.5 -164 L 25 -164 L 25 -4 L 7.5 -4 L 7.5 0 L 64 0 L 64 -4 L 46.5 -4 L 46.5 -66.5 C 46.5 -69.164062 47.207031 -72.125 48.625 -75.375 C 50.039062 -78.625 52.082031 -81.707031 54.75 -84.625 C 57.414062 -87.539062 60.5 -90 64 -92 C 67.5 -94 71.414062 -95 75.75 -95 C 79.25 -95 82 -94.414062 84 -93.25 C 86 -92.082031 87.5 -90.582031 88.5 -88.75 C 89.5 -86.914062 90.125 -84.875 90.375 -82.625 C 90.625 -80.375 90.75 -78.082031 90.75 -75.75 L 90.75 -4 L 73.5 -4 L 73.5 0 L 129.75 0 L 129.75 -4 L 112.25 -4 L 112.25 -78.5 C 112.25 -86 109.707031 -91.707031 104.625 -95.625 C 99.539062 -99.539062 92.5 -101.5 83.5 -101.5 C 73.664062 -101.5 65.789062 -99.414062 59.875 -95.25 C 53.957031 -91.082031 49.5 -86.164062 46.5 -80.5 Z M 46.5 -80.5 "/></g></g></g></svg>
